<svg xmlns="http://www.w3.org/2000/svg" width="920" height="420" viewBox="0 0 920 420">
<rect width="100%" height="100%" fill="white"/>
<text x="460.0" y="36" text-anchor="middle" font-size="22" fill="black" font-family="Microsoft YaHei, SimSun, sans-serif">各作者采集帖子数（Top 10）</text>
<line x1="170" y1="360" x2="880" y2="360" stroke="black"/>
<text x="158" y="82.2" text-anchor="end" font-size="16" fill="black" font-family="Microsoft YaHei, SimSun, sans-serif">爱吃榴莲</text>
<rect x="170" y="70.0" width="710.0" height="18.0" fill="white" stroke="black"/>
<text x="888.0" y="82.2" font-size="16" fill="black" font-family="Arial, sans-serif">32</text>
<text x="158" y="112.5" text-anchor="end" font-size="16" fill="black" font-family="Microsoft YaHei, SimSun, sans-serif">英语老师Freya</text>
<rect x="170" y="100.2" width="710.0" height="18.0" fill="white" stroke="black"/>
<text x="888.0" y="112.5" font-size="16" fill="black" font-family="Arial, sans-serif">32</text>
<text x="158" y="142.7" text-anchor="end" font-size="16" fill="black" font-family="Microsoft YaHei, SimSun, sans-serif">73B85Y79</text>
<rect x="170" y="130.4" width="710.0" height="18.0" fill="white" stroke="black"/>
<text x="888.0" y="142.7" font-size="16" fill="black" font-family="Arial, sans-serif">32</text>
<text x="158" y="172.9" text-anchor="end" font-size="16" fill="black" font-family="Microsoft YaHei, SimSun, sans-serif">新黄河</text>
<rect x="170" y="160.7" width="710.0" height="18.0" fill="white" stroke="black"/>
<text x="888.0" y="172.9" font-size="16" fill="black" font-family="Arial, sans-serif">32</text>
<text x="158" y="203.1" text-anchor="end" font-size="16" fill="black" font-family="Microsoft YaHei, SimSun, sans-serif">七曜七曜</text>
<rect x="170" y="190.9" width="710.0" height="18.0" fill="white" stroke="black"/>
<text x="888.0" y="203.1" font-size="16" fill="black" font-family="Arial, sans-serif">32</text>
<text x="158" y="233.3" text-anchor="end" font-size="16" fill="black" font-family="Microsoft YaHei, SimSun, sans-serif">玉米之子</text>
<rect x="170" y="221.1" width="710.0" height="18.0" fill="white" stroke="black"/>
<text x="888.0" y="233.3" font-size="16" fill="black" font-family="Arial, sans-serif">32</text>
<text x="158" y="263.6" text-anchor="end" font-size="16" fill="black" font-family="Microsoft YaHei, SimSun, sans-serif">潇湘晨报</text>
<rect x="170" y="251.3" width="710.0" height="18.0" fill="white" stroke="black"/>
<text x="888.0" y="263.6" font-size="16" fill="black" font-family="Arial, sans-serif">32</text>
<text x="158" y="293.8" text-anchor="end" font-size="16" fill="black" font-family="Microsoft YaHei, SimSun, sans-serif">Oooo小小哼^</text>
<rect x="170" y="281.6" width="710.0" height="18.0" fill="white" stroke="black"/>
<text x="888.0" y="293.8" font-size="16" fill="black" font-family="Arial, sans-serif">32</text>
<text x="158" y="324.0" text-anchor="end" font-size="16" fill="black" font-family="Microsoft YaHei, SimSun, sans-serif">pengyu</text>
<rect x="170" y="311.8" width="710.0" height="18.0" fill="white" stroke="black"/>
<text x="888.0" y="324.0" font-size="16" fill="black" font-family="Arial, sans-serif">32</text>
<text x="158" y="354.2" text-anchor="end" font-size="16" fill="black" font-family="Microsoft YaHei, SimSun, sans-serif">V中文版</text>
<rect x="170" y="342.0" width="710.0" height="18.0" fill="white" stroke="black"/>
<text x="888.0" y="354.2" font-size="16" fill="black" font-family="Arial, sans-serif">32</text>
</svg>